<?xml version="1.0" standalone="no"?>
<!DOCTYPE svg PUBLIC "-//W3C//DTD SVG 20010904//EN"
 "http://www.w3.org/TR/2001/REC-SVG-20010904/DTD/svg10.dtd">
<svg version="1.0" xmlns="http://www.w3.org/2000/svg"
 width="640.000000pt" height="512.000000pt" viewBox="0 0 640.000000 512.000000"
 preserveAspectRatio="xMidYMid meet">
<metadata>
Created by potrace 1.15, written by Peter Selinger 2001-2017
</metadata>
<g transform="translate(0.000000,512.000000) scale(0.100000,-0.100000)"
fill="#000000" stroke="none">
<path d="M3092 5109 c-47 -14 -1702 -1120 -1737 -1160 -15 -19 -39 -56 -51
-84 l-24 -50 0 -1907 0 -1908 640 0 640 0 0 713 c0 391 5 730 10 751 11 49 37
85 81 111 33 19 52 20 549 20 497 0 516 -1 549 -20 44 -26 70 -62 81 -111 5
-21 10 -360 10 -751 l0 -713 640 0 640 0 0 1908 0 1907 -24 50 c-12 28 -36 65
-51 84 -38 44 -1691 1146 -1741 1160 -47 13 -166 13 -212 0z m294 -664 c244
-43 431 -141 610 -319 181 -182 282 -379 320 -629 35 -230 -4 -466 -114 -681
-317 -620 -1117 -806 -1677 -389 -392 292 -550 795 -397 1259 17 50 42 115 57
145 132 263 380 480 648 569 180 59 378 75 553 45z m-1353 -927 c-10 -57 -10
-320 0 -380 7 -43 6 -48 -10 -48 -33 1 -99 37 -137 76 -112 115 -70 304 84
373 66 30 72 28 63 -21z m2397 21 c192 -87 195 -344 6 -430 -71 -32 -79 -28
-69 39 10 73 10 303 0 365 -10 55 -5 57 63 26z"/>
<path d="M2909 3769 c-65 -10 -120 -41 -167 -94 -96 -110 -96 -266 2 -382 15
-17 54 -46 88 -62 114 -57 245 -34 331 58 24 26 48 57 51 69 9 28 23 28 32 0
3 -12 27 -43 51 -69 86 -92 217 -115 331 -58 65 32 99 66 135 133 32 60 31
184 -1 246 -106 204 -380 220 -502 29 l-33 -51 -18 35 c-27 51 -77 97 -134
123 -61 27 -105 33 -166 23z m139 -65 c87 -36 142 -120 142 -219 0 -73 -24
-129 -72 -171 -114 -100 -284 -77 -362 50 -75 120 -22 285 108 342 42 18 139
17 184 -2z m546 2 c92 -38 152 -138 143 -237 -6 -65 -24 -104 -69 -149 -117
-117 -320 -78 -383 74 -48 115 7 255 120 307 48 22 142 25 189 5z"/>
<path d="M3696 2913 c-142 -184 -298 -273 -477 -273 -150 0 -281 66 -446 224
-68 65 -108 96 -118 92 -29 -11 -15 -37 58 -109 230 -231 444 -305 672 -233
132 42 235 118 335 247 63 81 73 109 41 109 -12 0 -37 -23 -65 -57z"/>
<path d="M192 3179 c-71 -28 -144 -101 -171 -174 -21 -56 -21 -61 -21 -1478 0
-1401 0 -1422 20 -1455 11 -18 34 -41 52 -52 32 -19 52 -20 461 -20 l427 0 0
1600 0 1600 -357 -1 c-335 0 -361 -1 -411 -20z"/>
<path d="M5440 1600 l0 -1600 428 0 c408 0 428 1 460 20 18 11 41 34 52 52 20
33 20 54 20 1455 0 1417 0 1422 -21 1478 -28 74 -100 146 -174 174 -53 20 -75
21 -410 21 l-355 0 0 -1600z"/>
</g>
</svg>
